<mxfile host="app.diagrams.net" agent="Mozilla/5.0 (Macintosh; Intel Mac OS X 10_15_7) AppleWebKit/537.36 (KHTML, like Gecko) Chrome/138.0.0.0 Safari/537.36" version="28.1.2">
  <diagram name="创建离线任务" id="q-FKr38_cjb9bAnMw6bk">
    <mxGraphModel dx="1554" dy="763" grid="1" gridSize="10" guides="1" tooltips="1" connect="1" arrows="1" fold="1" page="1" pageScale="1" pageWidth="827" pageHeight="1169" math="0" shadow="0">
      <root>
        <mxCell id="0" />
        <mxCell id="1" parent="0" />
        <mxCell id="2ayJp5on0NI8x-PA82Mp-1" value="job-notify" style="shape=umlLifeline;perimeter=lifelinePerimeter;whiteSpace=wrap;html=1;container=1;dropTarget=0;collapsible=0;recursiveResize=0;outlineConnect=0;portConstraint=eastwest;newEdgeStyle={&quot;curved&quot;:0,&quot;rounded&quot;:0};" vertex="1" parent="1">
          <mxGeometry x="120" y="80" width="100" height="640" as="geometry" />
        </mxCell>
        <mxCell id="2ayJp5on0NI8x-PA82Mp-3" value="" style="html=1;points=[[0,0,0,0,5],[0,1,0,0,-5],[1,0,0,0,5],[1,1,0,0,-5]];perimeter=orthogonalPerimeter;outlineConnect=0;targetShapes=umlLifeline;portConstraint=eastwest;newEdgeStyle={&quot;curved&quot;:0,&quot;rounded&quot;:0};" vertex="1" parent="2ayJp5on0NI8x-PA82Mp-1">
          <mxGeometry x="50" y="220" width="10" height="40" as="geometry" />
        </mxCell>
        <mxCell id="2ayJp5on0NI8x-PA82Mp-4" value="校验项目id不为空&lt;div&gt;校验挂载数据集、模型小于等于3个&lt;/div&gt;&lt;div&gt;校验不能挂载相同数据集、模型&lt;/div&gt;&lt;div&gt;校验任务名不为空&lt;/div&gt;&lt;div&gt;验证如果多个角色，只能选择一种实例规格&lt;/div&gt;&lt;div&gt;请求来源角色校验&lt;/div&gt;&lt;div&gt;校验来源角色只能是普通用户&lt;/div&gt;&lt;div&gt;分布式锁校验，防止并发问题&lt;/div&gt;&lt;div&gt;项目权限校验&lt;/div&gt;&lt;div&gt;持久化存储配额校验&lt;/div&gt;&lt;div&gt;校验任务是否重名&lt;/div&gt;&lt;div&gt;校验等待中任务数量是否达上限&lt;/div&gt;" style="html=1;align=left;spacingLeft=2;endArrow=block;rounded=0;edgeStyle=orthogonalEdgeStyle;curved=0;rounded=0;fontSize=12;startSize=8;endSize=8;" edge="1" target="2ayJp5on0NI8x-PA82Mp-3" parent="2ayJp5on0NI8x-PA82Mp-1">
          <mxGeometry x="0.0118" relative="1" as="geometry">
            <mxPoint x="55" y="200" as="sourcePoint" />
            <Array as="points">
              <mxPoint x="85" y="230" />
            </Array>
            <mxPoint as="offset" />
          </mxGeometry>
        </mxCell>
        <mxCell id="2ayJp5on0NI8x-PA82Mp-5" value="" style="html=1;points=[[0,0,0,0,5],[0,1,0,0,-5],[1,0,0,0,5],[1,1,0,0,-5]];perimeter=orthogonalPerimeter;outlineConnect=0;targetShapes=umlLifeline;portConstraint=eastwest;newEdgeStyle={&quot;curved&quot;:0,&quot;rounded&quot;:0};" vertex="1" parent="2ayJp5on0NI8x-PA82Mp-1">
          <mxGeometry x="50" y="340" width="10" height="190" as="geometry" />
        </mxCell>
        <mxCell id="2ayJp5on0NI8x-PA82Mp-6" value="创建任务GenerateJobFromPrerequisite" style="html=1;align=left;spacingLeft=2;endArrow=block;rounded=0;edgeStyle=orthogonalEdgeStyle;curved=0;rounded=0;fontSize=12;startSize=8;endSize=8;" edge="1" target="2ayJp5on0NI8x-PA82Mp-5" parent="2ayJp5on0NI8x-PA82Mp-1">
          <mxGeometry relative="1" as="geometry">
            <mxPoint x="55" y="320" as="sourcePoint" />
            <Array as="points">
              <mxPoint x="85" y="350" />
            </Array>
          </mxGeometry>
        </mxCell>
        <mxCell id="2ayJp5on0NI8x-PA82Mp-7" value="" style="html=1;points=[[0,0,0,0,5],[0,1,0,0,-5],[1,0,0,0,5],[1,1,0,0,-5]];perimeter=orthogonalPerimeter;outlineConnect=0;targetShapes=umlLifeline;portConstraint=eastwest;newEdgeStyle={&quot;curved&quot;:0,&quot;rounded&quot;:0};" vertex="1" parent="2ayJp5on0NI8x-PA82Mp-1">
          <mxGeometry x="60" y="450" width="10" height="40" as="geometry" />
        </mxCell>
        <mxCell id="2ayJp5on0NI8x-PA82Mp-8" value="验证镜像、数据集、模型状态以及权限&lt;div&gt;验证数据集状态以及权限&lt;/div&gt;&lt;div&gt;统计资源信息&amp;amp;构造配额校验和集群校验输入项&lt;/div&gt;&lt;div&gt;校验实例规格可用区&lt;/div&gt;&lt;div&gt;配额校验QuotaCheckJobV2&lt;/div&gt;&lt;div&gt;创建结果集&lt;/div&gt;&lt;div&gt;任务记录写入mysql&lt;/div&gt;&lt;div&gt;进入配额队列(sch_quota_queue表写入job信息)&lt;br&gt;&lt;div&gt;记录任务状态(写入pro_job_status表)&lt;/div&gt;&lt;/div&gt;" style="html=1;align=left;spacingLeft=2;endArrow=block;rounded=0;edgeStyle=orthogonalEdgeStyle;curved=0;rounded=0;fontSize=12;startSize=8;endSize=8;" edge="1" target="2ayJp5on0NI8x-PA82Mp-7" parent="2ayJp5on0NI8x-PA82Mp-1">
          <mxGeometry x="0.0118" relative="1" as="geometry">
            <mxPoint x="65" y="430" as="sourcePoint" />
            <Array as="points">
              <mxPoint x="95" y="460" />
            </Array>
            <mxPoint as="offset" />
          </mxGeometry>
        </mxCell>
        <mxCell id="2ayJp5on0NI8x-PA82Mp-9" value="" style="html=1;points=[[0,0,0,0,5],[0,1,0,0,-5],[1,0,0,0,5],[1,1,0,0,-5]];perimeter=orthogonalPerimeter;outlineConnect=0;targetShapes=umlLifeline;portConstraint=eastwest;newEdgeStyle={&quot;curved&quot;:0,&quot;rounded&quot;:0};" vertex="1" parent="2ayJp5on0NI8x-PA82Mp-1">
          <mxGeometry x="50" y="580" width="10" height="40" as="geometry" />
        </mxCell>
        <mxCell id="2ayJp5on0NI8x-PA82Mp-10" value="记录操作日志" style="html=1;align=left;spacingLeft=2;endArrow=block;rounded=0;edgeStyle=orthogonalEdgeStyle;curved=0;rounded=0;fontSize=12;startSize=8;endSize=8;" edge="1" target="2ayJp5on0NI8x-PA82Mp-9" parent="2ayJp5on0NI8x-PA82Mp-1">
          <mxGeometry relative="1" as="geometry">
            <mxPoint x="55" y="560" as="sourcePoint" />
            <Array as="points">
              <mxPoint x="85" y="590" />
            </Array>
          </mxGeometry>
        </mxCell>
        <mxCell id="2ayJp5on0NI8x-PA82Mp-2" value="NewJob" style="html=1;verticalAlign=bottom;endArrow=block;curved=0;rounded=0;fontSize=12;startSize=8;endSize=8;" edge="1" parent="1">
          <mxGeometry width="80" relative="1" as="geometry">
            <mxPoint x="80" y="160" as="sourcePoint" />
            <mxPoint x="160" y="160" as="targetPoint" />
          </mxGeometry>
        </mxCell>
      </root>
    </mxGraphModel>
  </diagram>
</mxfile>
